<?xml version="1.0" standalone="no"?>
<!DOCTYPE svg PUBLIC "-//W3C//DTD SVG 20010904//EN"
 "http://www.w3.org/TR/2001/REC-SVG-20010904/DTD/svg10.dtd">
<svg version="1.0" xmlns="http://www.w3.org/2000/svg"
 width="1024.000000pt" height="1024.000000pt" viewBox="0 0 1024.000000 1024.000000"
 preserveAspectRatio="xMidYMid meet">

<g transform="translate(0.000000,1024.000000) scale(0.100000,-0.100000)"
fill="#000000" stroke="none">
<path d="M5930 7799 c-137 -14 -311 -81 -425 -163 -76 -55 -202 -183 -251
-257 -89 -134 -147 -272 -181 -429 -28 -131 -25 -424 5 -543 46 -184 123 -335
243 -475 145 -171 304 -266 649 -387 251 -87 509 -226 694 -373 172 -136 364
-354 470 -535 56 -95 127 -259 157 -362 12 -42 27 -74 33 -72 39 12 23 302
-28 499 -50 198 -153 410 -280 578 -83 109 -263 279 -426 401 -267 200 -361
325 -369 493 -2 44 2 104 9 133 17 80 92 183 229 316 199 193 277 335 288 522
9 148 -37 283 -139 403 -160 189 -406 280 -678 251z m253 -493 c52 -22 89 -68
94 -120 7 -56 -9 -97 -52 -135 -76 -66 -188 -41 -234 52 -27 55 -24 95 12 147
42 62 114 84 180 56z"/>
<path d="M6956 7051 c-21 -178 -104 -343 -232 -461 -26 -24 -39 -42 -32 -45 7
-2 54 -14 103 -27 80 -20 113 -23 295 -23 195 1 209 2 295 28 147 46 345 164
386 231 36 59 16 122 -48 147 -13 5 -99 9 -191 9 -107 0 -192 6 -236 15 -87
18 -196 72 -273 134 l-60 49 -7 -57z"/>
<path d="M5055 5434 c-407 -32 -735 -139 -1100 -360 -77 -46 -148 -90 -158
-98 -28 -22 -17 -47 28 -63 115 -40 475 -95 840 -128 575 -53 840 -140 1041
-343 260 -263 300 -654 97 -959 -121 -183 -332 -331 -573 -403 -285 -84 -641
-79 -960 16 -327 97 -660 279 -975 533 -135 109 -168 108 -139 -6 19 -76 127
-294 203 -411 158 -242 371 -465 586 -614 72 -50 270 -162 351 -199 177 -80
415 -147 639 -180 190 -27 470 -23 660 10 379 66 727 216 980 422 277 227 466
514 537 819 29 127 36 377 13 511 -53 317 -206 601 -460 854 -212 211 -483
377 -789 484 -241 84 -589 133 -821 115z"/>
<path d="M2522 5098 c-16 -16 -15 -33 4 -126 35 -172 153 -418 280 -583 256
-333 664 -585 1105 -681 140 -30 442 -33 560 -5 164 38 302 135 360 253 36 72
34 197 -3 276 -52 113 -166 206 -306 252 -96 32 -130 39 -350 76 -246 41 -503
94 -658 135 -309 82 -622 208 -843 339 -70 42 -129 76 -132 76 -3 0 -10 -5
-17 -12z"/>
</g>
</svg>
